<?xml version="1.0" encoding="UTF-8"?>
<svg width="512px" height="512px" viewBox="0 0 512 512" version="1.1" xmlns="http://www.w3.org/2000/svg" xmlns:xlink="http://www.w3.org/1999/xlink">
    <!-- Generator: Sketch 64 (93537) - https://sketch.com -->
    <title>contoso</title>
    <desc>Created with Sketch.</desc>
    <g id="contoso" stroke="none" stroke-width="1" fill="none" fill-rule="evenodd">
        <rect fill="#3178B9" x="0" y="0" width="512" height="512"></rect>
        <path d="M119.47685,176 C140.518405,176 159.573377,183.461965 174.452472,197.737028 L174.452472,197.737028 L174.493015,197.777582 C174.857897,198.223678 174.857897,198.913098 174.41193,199.359194 L174.41193,199.359194 L166.749398,207.388917 C165.857464,208.321662 164.438476,208.362217 163.465456,207.551134 C151.343251,195.871537 136.70741,190.599496 119.47685,190.599496 C83.1102334,190.599496 53.5952978,220.122922 53.5952978,256.5 C53.5952978,292.877078 83.1102334,322.400504 119.47685,322.400504 C136.950665,322.400504 151.748676,316.641814 163.992509,304.637783 L163.992509,304.637783 L164.073594,304.597229 C165.087156,303.948363 166.384516,304.110579 167.235908,304.962217 L167.235908,304.962217 L174.452472,312.343073 C174.493015,312.383627 174.5741,312.464736 174.614642,312.50529 C175.263322,313.316373 175.06061,314.532997 174.24976,315.14131 C159.28958,329.78136 140.842745,337 119.47685,337 C75.0422771,337 39,300.947355 39,256.5 C39,212.052645 75.0422771,176 119.47685,176 Z M118.591837,197 C119.938776,197 121,198.098462 121,199.400342 L121,199.400342 L121,208.513504 C121,209.97812 119.857143,211.198632 118.387755,211.320684 C93.4081633,211.320684 75.3673469,231.29641 75.3673469,256.194872 C75.3673469,281.093333 94.3061224,301.272479 119.285714,301.272479 L119.285714,301.272479 C120.22449,301.272479 121,302.04547 121,302.981197 L121,302.981197 L121,314.291282 C121,315.227009 120.22449,316 119.285714,316 C86.3877551,316 61,289.311453 61,256.398291 C61,223.485128 85.4897959,197 118.387755,197 L118.387755,197 L118.469388,197 L118.469388,197 L118.591837,197 Z M155.5,227 C172.905769,227 187,241.094231 187,258.5 C187,275.905769 172.905769,290 155.5,290 C138.094231,290 124,275.905769 124,258.5 C124,241.094231 138.134615,227 155.5,227 Z M322.894332,227.005282 C340.781717,226.682259 355.317741,241.218283 354.994718,259.105668 C354.671696,275.943229 340.943229,289.671696 324.105668,289.994718 C306.218283,290.317741 291.682259,275.781717 292.005282,257.894332 C292.287926,241.056771 306.056771,227.328304 322.894332,227.005282 Z M440.894332,227.005282 C458.781717,226.682259 473.317741,241.218283 472.994718,259.105668 C472.671696,275.943229 458.943229,289.671696 442.105668,289.994718 C424.218283,290.317741 409.682259,275.781717 410.005282,257.894332 C410.287926,241.056771 424.056771,227.328304 440.894332,227.005282 Z M273.318515,214.013874 C273.999551,214.703308 274.40016,215.595518 274.440221,216.487727 L274.440221,216.649947 L274.440221,228.978655 L284.455456,228.978655 C286.418442,228.978655 288.02088,230.560299 288.060941,232.506937 L288.060941,232.628602 L288.060941,236.684098 C288.060941,238.671291 286.498564,240.29349 284.575639,240.334045 L284.455456,240.334045 L274.440221,240.334045 L274.440221,273.589114 C274.440221,274.967983 275.081196,275.657417 276.323085,275.697972 L276.443268,275.697972 L277.605035,275.697972 C278.125828,275.697972 279.407778,275.008538 281.410825,273.670224 C282.652714,272.81857 284.335273,273.102455 285.216614,274.359658 C287.259722,277.198506 288.661855,279.104589 289.423013,280.077908 C290.785085,281.902882 289.423013,283.36286 288.541672,284.01174 C287.660331,284.701174 281.490947,289 274.84083,289 C262.942731,289 259.817978,281.862327 260.018282,276.955176 L260.018282,276.792956 L260.018282,240.29349 L251.605485,240.29349 C249.642499,240.29349 248.040061,238.711846 248,236.765208 L248,236.643543 L248,232.588047 C248,230.600854 249.562377,228.978655 251.485302,228.9381 L251.605485,228.9381 L260.018282,228.9381 L260.018282,217.98826 C260.018282,216.284952 261.22011,214.784418 262.862609,214.419424 L262.982792,214.378869 L270.113639,213.040555 C271.235346,212.878335 272.477235,213.202775 273.318515,214.013874 Z M203.407407,228.845638 C205.403704,228.845638 207.033333,230.416107 207.074074,232.348993 L207.074074,233.395973 C210.862963,229.812081 215.425926,228 220.762963,228 C238.362963,228 247,238.590604 247,246.483221 L247,250.147651 L247,250.147651 L247,283.57047 C247,283.57047 247,284.09396 247,284.375839 C247,286.348993 245.411111,287.959732 243.455556,288 L235.592593,288 C233.555556,288 231.925926,286.389262 231.925926,284.375839 C231.925926,284.09396 231.925926,283.57047 231.925926,283.57047 L231.925926,248.416107 C231.925926,244.671141 228.055556,240.120805 220.762963,240.120805 C216.037037,240.120805 211.474074,242.255034 207.074074,246.483221 L207.074074,283.57047 C207.074074,283.57047 207.074074,284.09396 207.074074,284.375839 C207.074074,286.348993 205.485185,287.959732 203.52963,288 L195.666667,288 C193.62963,288 192,286.389262 192,284.375839 C192,284.09396 192,283.57047 192,283.57047 L192,236.053691 L192,235.932886 C192.081481,231.986577 195.340741,228.805369 199.333333,228.805369 L203.407407,228.805369 L203.407407,228.845638 Z M382.206886,227 C389.66531,227 396.386088,229.71652 404.66412,234.663018 C405.688629,235.230649 406.303334,236.001005 405.688629,237.014632 L405.688629,237.014632 L400.934908,244.191109 C400.156281,245.326371 398.844909,245.326371 397.656479,244.637105 C395.689422,243.258572 389.419428,239.16352 383.067473,239.08243 C379.543162,239.041885 372.3716,240.055512 372.3716,245.204736 C372.3716,250.353959 380.321789,251.00268 383.067473,251.529766 C386.100019,252.097397 407,252.097397 407,268.68033 C407,279.181503 394.746874,289.115045 377.699047,287.898693 C372.002777,287.493242 363.929647,286.074165 354.99593,280.560035 C354.176323,280.114039 353.602598,278.694962 354.340244,277.762426 L354.340244,277.762426 L359.093966,271.8023 C359.872592,270.788674 361.183964,270.058863 362.782197,271.113034 C367.986702,274.59991 372.822384,276.221713 377.740027,276.221713 C389.296487,276.221713 392.943738,271.8023 392.943738,268.720875 C392.943738,264.585278 386.141,262.801295 376.92042,262.274209 C369.748858,261.828214 358.274358,257.530436 358.274358,244.312744 C358.233378,231.662683 371.961797,227 382.206886,227 Z M93.8918593,232.307352 C94.2989317,231.897549 94.9909547,231.897549 95.3980271,232.307352 L95.3980271,232.307352 L104.150084,241.20008 C104.638571,241.691844 104.679278,242.51145 104.272205,243.044194 C100.486432,247.101245 98.9802642,251.5681 98.9802642,257.223383 C98.9802642,263.165528 100.527139,267.960225 104.638571,272.058256 L104.638571,272.058256 L104.638571,272.058256 L104.638571,272.058256 L104.638571,272.058256 C105.127057,272.55002 105.127057,273.369626 104.597863,273.86139 L104.597863,273.86139 L95.6422706,282.631177 C95.1130765,283.122941 94.2989317,283.122941 93.7697375,282.631177 C87.053043,275.746485 84,267.222579 84,257.346324 C84,247.593009 87.1344575,239.274006 93.6883231,232.389313 L93.6883231,232.389313 L93.7290303,232.348333 L93.7290303,232.348333 L93.8918593,232.307352 Z M156,239 C146.609524,239 139,247.284783 139,257.5 C139,267.715217 146.609524,276 156,276 C165.390476,276 173,267.715217 173,257.5 C173,247.284783 165.390476,239 156,239 Z M323,239 C313.609524,239 306,247.284783 306,257.5 C306,267.715217 313.609524,276 323,276 C332.390476,276 340,267.715217 340,257.5 C340,247.284783 332.390476,239 323,239 Z M441,239 C431.609524,239 424,247.284783 424,257.5 C424,267.715217 431.609524,276 441,276 C450.390476,276 458,267.715217 458,257.5 C458,247.284783 450.390476,239 441,239 Z" id="Combined-Shape" fill="#FFFFFF"></path>
    </g>
</svg>